<svg width="493" height="444" xmlns="http://www.w3.org/2000/svg" xmlns:xlink="http://www.w3.org/1999/xlink" xml:space="preserve" overflow="hidden"><g><g><path d="M151.472 14.0252C154.571 14.0252 157.082 16.5369 157.082 19.6353L157.082 39.2706C157.082 42.3689 154.571 44.8807 151.472 44.8807L30.8555 44.8807C27.7571 44.8807 25.2454 42.3689 25.2454 39.2706L25.2454 19.6353C25.2454 16.5369 27.7571 14.0252 30.8555 14.0252Z" stroke="#B4B2A9" stroke-width="0.35063" stroke-linecap="butt" stroke-linejoin="miter" stroke-miterlimit="4" stroke-opacity="1" fill="#444441" fill-rule="nonzero" fill-opacity="1" transform="matrix(1 0 0 1.00204 -7.02373e-15 0.00719687)"/><text fill="#D3D1C7" fill-opacity="1" font-family="Segoe UI,Segoe UI_MSFontService,sans-serif" font-style="normal" font-variant="normal" font-weight="400" font-stretch="normal" font-size="14" text-anchor="start" direction="ltr" writing-mode="lr-tb" unicode-bidi="normal" text-decoration="none" transform="matrix(0.70126 0 0 0.702694 35.4136 27)">Prometheus remote-write</text><text fill="#B4B2A9" fill-opacity="1" font-family="Segoe UI,Segoe UI_MSFontService,sans-serif" font-style="normal" font-variant="normal" font-weight="400" font-stretch="normal" font-size="12" text-anchor="start" direction="ltr" writing-mode="lr-tb" unicode-bidi="normal" text-decoration="none" transform="matrix(0.70126 0 0 0.702694 50.1401 38)">metrics ingest sources</text><path d="M446.002 14.0252C449.1 14.0252 451.612 16.5369 451.612 19.6353L451.612 39.2706C451.612 42.3689 449.1 44.8807 446.002 44.8807L325.385 44.8807C322.286 44.8807 319.775 42.3689 319.775 39.2706L319.775 19.6353C319.775 16.5369 322.286 14.0252 325.385 14.0252Z" stroke="#B4B2A9" stroke-width="0.35063" stroke-linecap="butt" stroke-linejoin="miter" stroke-miterlimit="4" stroke-opacity="1" fill="#444441" fill-rule="nonzero" fill-opacity="1" transform="matrix(1 0 0 1.00204 -7.02373e-15 0.00719687)"/><text fill="#D3D1C7" fill-opacity="1" font-family="Segoe UI,Segoe UI_MSFontService,sans-serif" font-style="normal" font-variant="normal" font-weight="400" font-stretch="normal" font-size="14" text-anchor="start" direction="ltr" writing-mode="lr-tb" unicode-bidi="normal" text-decoration="none" transform="matrix(0.70126 0 0 0.702694 357.643 27)">Query clients</text><text fill="#B4B2A9" fill-opacity="1" font-family="Segoe UI,Segoe UI_MSFontService,sans-serif" font-style="normal" font-variant="normal" font-weight="400" font-stretch="normal" font-size="12" text-anchor="start" direction="ltr" writing-mode="lr-tb" unicode-bidi="normal" text-decoration="none" transform="matrix(0.70126 0 0 0.702694 340.111 38)">Grafana · PromQL callers</text><path d="M91.1638 44.8807 91.1638 67.321" stroke="#9C9A92" stroke-width="1.05189" stroke-linecap="butt" stroke-linejoin="miter" stroke-miterlimit="4" stroke-opacity="1" fill="none" fill-rule="nonzero" transform="matrix(1 0 0 1.00204 -7.02373e-15 0.00719687)"/><path d="M385.693 44.8807 322.58 67.321" stroke="#9C9A92" stroke-width="1.05189" stroke-linecap="butt" stroke-linejoin="miter" stroke-miterlimit="4" stroke-opacity="1" fill="none" fill-rule="nonzero" transform="matrix(1 0 0 1.00204 -7.02373e-15 0.00719687)"/><path d="M151.472 67.321C154.571 67.321 157.082 69.8327 157.082 72.9311L157.082 100.981C157.082 104.08 154.571 106.592 151.472 106.592L30.8555 106.592C27.7571 106.592 25.2454 104.08 25.2454 100.981L25.2454 72.9311C25.2454 69.8327 27.7571 67.321 30.8555 67.321Z" stroke="#AFA9EC" stroke-width="0.35063" stroke-linecap="butt" stroke-linejoin="miter" stroke-miterlimit="4" stroke-opacity="1" fill="#3C3489" fill-rule="nonzero" fill-opacity="1" transform="matrix(1 0 0 1.00204 -7.02373e-15 0.00719687)"/><text fill="#CECBF6" fill-opacity="1" font-family="Segoe UI,Segoe UI_MSFontService,sans-serif" font-style="normal" font-variant="normal" font-weight="400" font-stretch="normal" font-size="14" text-anchor="start" direction="ltr" writing-mode="lr-tb" unicode-bidi="normal" text-decoration="none" transform="matrix(0.70126 0 0 0.702694 68.0222 82)">Distributor</text><text fill="#AFA9EC" fill-opacity="1" font-family="Segoe UI,Segoe UI_MSFontService,sans-serif" font-style="normal" font-variant="normal" font-weight="400" font-stretch="normal" font-size="12" text-anchor="start" direction="ltr" writing-mode="lr-tb" unicode-bidi="normal" text-decoration="none" transform="matrix(0.70126 0 0 0.702694 19.2847 94)">Receive writes · validate · shard via ring</text><path d="M315.567 67.321C318.665 67.321 321.177 69.8327 321.177 72.9311L321.177 100.981C321.177 104.08 318.665 106.592 315.567 106.592L194.95 106.592C191.852 106.592 189.34 104.08 189.34 100.981L189.34 72.9311C189.34 69.8327 191.852 67.321 194.95 67.321Z" stroke="#5DCAA5" stroke-width="0.35063" stroke-linecap="butt" stroke-linejoin="miter" stroke-miterlimit="4" stroke-opacity="1" fill="#085041" fill-rule="nonzero" fill-opacity="1" transform="matrix(1 0 0 1.00204 -7.02373e-15 0.00719687)"/><text fill="#9FE1CB" fill-opacity="1" font-family="Segoe UI,Segoe UI_MSFontService,sans-serif" font-style="normal" font-variant="normal" font-weight="400" font-stretch="normal" font-size="14" text-anchor="start" direction="ltr" writing-mode="lr-tb" unicode-bidi="normal" text-decoration="none" transform="matrix(0.70126 0 0 0.702694 221.248 82)">Query Frontend</text><text fill="#5DCAA5" fill-opacity="1" font-family="Segoe UI,Segoe UI_MSFontService,sans-serif" font-style="normal" font-variant="normal" font-weight="400" font-stretch="normal" font-size="12" text-anchor="start" direction="ltr" writing-mode="lr-tb" unicode-bidi="normal" text-decoration="none" transform="matrix(0.70126 0 0 0.702694 203.716 94)">Split queries · cache · queue</text><path d="M446.002 67.321C449.1 67.321 451.612 69.8327 451.612 72.9311L451.612 100.981C451.612 104.08 449.1 106.592 446.002 106.592L325.385 106.592C322.286 106.592 319.775 104.08 319.775 100.981L319.775 72.9311C319.775 69.8327 322.286 67.321 325.385 67.321Z" stroke="#B4B2A9" stroke-width="0.35063" stroke-linecap="butt" stroke-linejoin="miter" stroke-miterlimit="4" stroke-opacity="1" fill="#444441" fill-rule="nonzero" fill-opacity="1" transform="matrix(1 0 0 1.00204 -7.02373e-15 0.00719687)"/><text fill="#D3D1C7" fill-opacity="1" font-family="Segoe UI,Segoe UI_MSFontService,sans-serif" font-style="normal" font-variant="normal" font-weight="400" font-stretch="normal" font-size="14" text-anchor="start" direction="ltr" writing-mode="lr-tb" unicode-bidi="normal" text-decoration="none" transform="matrix(0.70126 0 0 0.702694 360.798 82)">Configs API</text><text fill="#B4B2A9" fill-opacity="1" font-family="Segoe UI,Segoe UI_MSFontService,sans-serif" font-style="normal" font-variant="normal" font-weight="400" font-stretch="normal" font-size="12" text-anchor="start" direction="ltr" writing-mode="lr-tb" unicode-bidi="normal" text-decoration="none" transform="matrix(0.70126 0 0 0.702694 331.696 94)">Ruler + alertmanager configs</text><path d="M91.1638 106.592 91.1638 134.642" stroke="#9C9A92" stroke-width="1.05189" stroke-linecap="butt" stroke-linejoin="miter" stroke-miterlimit="4" stroke-opacity="1" fill="none" fill-rule="nonzero" transform="matrix(1 0 0 1.00204 -7.02373e-15 0.00719687)"/><path d="M255.259 106.592 255.259 134.642" stroke="#9C9A92" stroke-width="1.05189" stroke-linecap="butt" stroke-linejoin="miter" stroke-miterlimit="4" stroke-opacity="1" fill="none" fill-rule="nonzero" transform="matrix(1 0 0 1.00204 -7.02373e-15 0.00719687)"/><path d="M385.693 106.592 385.693 134.642" stroke="#9C9A92" stroke-width="1.05189" stroke-linecap="butt" stroke-linejoin="miter" stroke-miterlimit="4" stroke-opacity="1" fill="none" fill-rule="nonzero" transform="matrix(1 0 0 1.00204 -7.02373e-15 0.00719687)"/><path d="M151.472 134.642C154.571 134.642 157.082 137.154 157.082 140.252L157.082 175.315C157.082 178.413 154.571 180.925 151.472 180.925L30.8555 180.925C27.7571 180.925 25.2454 178.413 25.2454 175.315L25.2454 140.252C25.2454 137.154 27.7571 134.642 30.8555 134.642Z" stroke="#AFA9EC" stroke-width="0.35063" stroke-linecap="butt" stroke-linejoin="miter" stroke-miterlimit="4" stroke-opacity="1" fill="#3C3489" fill-rule="nonzero" fill-opacity="1" transform="matrix(1 0 0 1.00204 -7.02373e-15 0.00719687)"/><text fill="#CECBF6" fill-opacity="1" font-family="Segoe UI,Segoe UI_MSFontService,sans-serif" font-style="normal" font-variant="normal" font-weight="400" font-stretch="normal" font-size="14" text-anchor="start" direction="ltr" writing-mode="lr-tb" unicode-bidi="normal" text-decoration="none" transform="matrix(0.70126 0 0 0.702694 73.6323 149)">Ingester</text><text fill="#AFA9EC" fill-opacity="1" font-family="Segoe UI,Segoe UI_MSFontService,sans-serif" font-style="normal" font-variant="normal" font-weight="400" font-stretch="normal" font-size="12" text-anchor="start" direction="ltr" writing-mode="lr-tb" unicode-bidi="normal" text-decoration="none" transform="matrix(0.70126 0 0 0.702694 47.3351 162)">Buffer in memory · WAL</text><text fill="#AFA9EC" fill-opacity="1" font-family="Segoe UI,Segoe UI_MSFontService,sans-serif" font-style="normal" font-variant="normal" font-weight="400" font-stretch="normal" font-size="12" text-anchor="start" direction="ltr" writing-mode="lr-tb" unicode-bidi="normal" text-decoration="none" transform="matrix(0.70126 0 0 0.702694 37.5174 173)">Flush TSDB blocks to storage</text><path d="M315.567 134.642C318.665 134.642 321.177 137.154 321.177 140.252L321.177 175.315C321.177 178.413 318.665 180.925 315.567 180.925L194.95 180.925C191.852 180.925 189.34 178.413 189.34 175.315L189.34 140.252C189.34 137.154 191.852 134.642 194.95 134.642Z" stroke="#5DCAA5" stroke-width="0.35063" stroke-linecap="butt" stroke-linejoin="miter" stroke-miterlimit="4" stroke-opacity="1" fill="#085041" fill-rule="nonzero" fill-opacity="1" transform="matrix(1 0 0 1.00204 -7.02373e-15 0.00719687)"/><text fill="#9FE1CB" fill-opacity="1" font-family="Segoe UI,Segoe UI_MSFontService,sans-serif" font-style="normal" font-variant="normal" font-weight="400" font-stretch="normal" font-size="14" text-anchor="start" direction="ltr" writing-mode="lr-tb" unicode-bidi="normal" text-decoration="none" transform="matrix(0.70126 0 0 0.702694 219.494 149)">Query Scheduler</text><text fill="#5DCAA5" fill-opacity="1" font-family="Segoe UI,Segoe UI_MSFontService,sans-serif" font-style="normal" font-variant="normal" font-weight="400" font-stretch="normal" font-size="12" text-anchor="start" direction="ltr" writing-mode="lr-tb" unicode-bidi="normal" text-decoration="none" transform="matrix(0.70126 0 0 0.702694 202.664 162)">Dispatch queries to Queriers</text><text fill="#5DCAA5" fill-opacity="1" font-family="Segoe UI,Segoe UI_MSFontService,sans-serif" font-style="normal" font-variant="normal" font-weight="400" font-stretch="normal" font-size="12" text-anchor="start" direction="ltr" writing-mode="lr-tb" unicode-bidi="normal" text-decoration="none" transform="matrix(0.70126 0 0 0.702694 200.56 173)">Fair scheduling · queue depth</text><path d="M446.002 134.642C449.1 134.642 451.612 137.154 451.612 140.252L451.612 175.315C451.612 178.413 449.1 180.925 446.002 180.925L325.385 180.925C322.286 180.925 319.775 178.413 319.775 175.315L319.775 140.252C319.775 137.154 322.286 134.642 325.385 134.642Z" stroke="#F0997B" stroke-width="0.35063" stroke-linecap="butt" stroke-linejoin="miter" stroke-miterlimit="4" stroke-opacity="1" fill="#712B13" fill-rule="nonzero" fill-opacity="1" transform="matrix(1 0 0 1.00204 -7.02373e-15 0.00719687)"/><text fill="#F5C4B3" fill-opacity="1" font-family="Segoe UI,Segoe UI_MSFontService,sans-serif" font-style="normal" font-variant="normal" font-weight="400" font-stretch="normal" font-size="14" text-anchor="start" direction="ltr" writing-mode="lr-tb" unicode-bidi="normal" text-decoration="none" transform="matrix(0.70126 0 0 0.702694 374.473 149)">Ruler</text><text fill="#F0997B" fill-opacity="1" font-family="Segoe UI,Segoe UI_MSFontService,sans-serif" font-style="normal" font-variant="normal" font-weight="400" font-stretch="normal" font-size="12" text-anchor="start" direction="ltr" writing-mode="lr-tb" unicode-bidi="normal" text-decoration="none" transform="matrix(0.70126 0 0 0.702694 321.878 162)">Evaluate recording + alerting rules</text><text fill="#F0997B" fill-opacity="1" font-family="Segoe UI,Segoe UI_MSFontService,sans-serif" font-style="normal" font-variant="normal" font-weight="400" font-stretch="normal" font-size="12" text-anchor="start" direction="ltr" writing-mode="lr-tb" unicode-bidi="normal" text-decoration="none" transform="matrix(0.70126 0 0 0.702694 337.657 173)">Per-tenant rule evaluation</text><path d="M91.1638 180.925 91.1638 220.196" stroke="#9C9A92" stroke-width="1.05189" stroke-linecap="butt" stroke-linejoin="miter" stroke-miterlimit="4" stroke-opacity="1" fill="none" fill-rule="nonzero" transform="matrix(1 0 0 1.00204 -7.02373e-15 0.00719687)"/><path d="M255.259 180.925 255.259 220.196" stroke="#9C9A92" stroke-width="1.05189" stroke-linecap="butt" stroke-linejoin="miter" stroke-miterlimit="4" stroke-opacity="1" fill="none" fill-rule="nonzero" transform="matrix(1 0 0 1.00204 -7.02373e-15 0.00719687)"/><path d="M385.693 180.925 385.693 220.196" stroke="#9C9A92" stroke-width="1.05189" stroke-linecap="butt" stroke-linejoin="miter" stroke-miterlimit="4" stroke-opacity="1" fill="none" fill-rule="nonzero" transform="matrix(1 0 0 1.00204 -7.02373e-15 0.00719687)"/><path d="M315.567 220.196C318.665 220.196 321.177 222.707 321.177 225.806L321.177 260.869C321.177 263.967 318.665 266.479 315.567 266.479L194.95 266.479C191.852 266.479 189.34 263.967 189.34 260.869L189.34 225.806C189.34 222.707 191.852 220.196 194.95 220.196Z" stroke="#5DCAA5" stroke-width="0.35063" stroke-linecap="butt" stroke-linejoin="miter" stroke-miterlimit="4" stroke-opacity="1" fill="#085041" fill-rule="nonzero" fill-opacity="1" transform="matrix(1 0 0 1.00204 -7.02373e-15 0.00719687)"/><text fill="#9FE1CB" fill-opacity="1" font-family="Segoe UI,Segoe UI_MSFontService,sans-serif" font-style="normal" font-variant="normal" font-weight="400" font-stretch="normal" font-size="14" text-anchor="start" direction="ltr" writing-mode="lr-tb" unicode-bidi="normal" text-decoration="none" transform="matrix(0.70126 0 0 0.702694 239.13 235)">Querier</text><text fill="#5DCAA5" fill-opacity="1" font-family="Segoe UI,Segoe UI_MSFontService,sans-serif" font-style="normal" font-variant="normal" font-weight="400" font-stretch="normal" font-size="12" text-anchor="start" direction="ltr" writing-mode="lr-tb" unicode-bidi="normal" text-decoration="none" transform="matrix(0.70126 0 0 0.702694 185.834 247)">Fan-out to Ingesters + Store Gateway</text><text fill="#5DCAA5" fill-opacity="1" font-family="Segoe UI,Segoe UI_MSFontService,sans-serif" font-style="normal" font-variant="normal" font-weight="400" font-stretch="normal" font-size="12" text-anchor="start" direction="ltr" writing-mode="lr-tb" unicode-bidi="normal" text-decoration="none" transform="matrix(0.70126 0 0 0.702694 209.326 259)">Merge and return results</text><path d="M446.002 220.196C449.1 220.196 451.612 222.707 451.612 225.806L451.612 260.869C451.612 263.967 449.1 266.479 446.002 266.479L325.385 266.479C322.286 266.479 319.775 263.967 319.775 260.869L319.775 225.806C319.775 222.707 322.286 220.196 325.385 220.196Z" stroke="#F0997B" stroke-width="0.35063" stroke-linecap="butt" stroke-linejoin="miter" stroke-miterlimit="4" stroke-opacity="1" fill="#712B13" fill-rule="nonzero" fill-opacity="1" transform="matrix(1 0 0 1.00204 -7.02373e-15 0.00719687)"/><text fill="#F5C4B3" fill-opacity="1" font-family="Segoe UI,Segoe UI_MSFontService,sans-serif" font-style="normal" font-variant="normal" font-weight="400" font-stretch="normal" font-size="14" text-anchor="start" direction="ltr" writing-mode="lr-tb" unicode-bidi="normal" text-decoration="none" transform="matrix(0.70126 0 0 0.702694 356.24 235)">Alertmanager</text><text fill="#F0997B" fill-opacity="1" font-family="Segoe UI,Segoe UI_MSFontService,sans-serif" font-style="normal" font-variant="normal" font-weight="400" font-stretch="normal" font-size="12" text-anchor="start" direction="ltr" writing-mode="lr-tb" unicode-bidi="normal" text-decoration="none" transform="matrix(0.70126 0 0 0.702694 324.684 247)">Receive firing alerts · deduplicate</text><text fill="#F0997B" fill-opacity="1" font-family="Segoe UI,Segoe UI_MSFontService,sans-serif" font-style="normal" font-variant="normal" font-weight="400" font-stretch="normal" font-size="12" text-anchor="start" direction="ltr" writing-mode="lr-tb" unicode-bidi="normal" text-decoration="none" transform="matrix(0.70126 0 0 0.702694 346.072 259)">Route · inhibit · notify</text><path d="M210.378 266.479 140.252 294.529" stroke="#9C9A92" stroke-width="1.05189" stroke-linecap="butt" stroke-linejoin="miter" stroke-miterlimit="4" stroke-opacity="1" fill="none" fill-rule="nonzero" transform="matrix(1 0 0 1.00204 -7.02373e-15 0.00719687)"/><path d="M224.403 266.479 126.227 294.529" fill="#000000" fill-rule="nonzero" fill-opacity="1" transform="matrix(1 0 0 1.00204 -7.02373e-15 0.00719687)"/><path d="M446.002 294.529C449.1 294.529 451.612 297.041 451.612 300.139L451.612 325.385C451.612 328.483 449.1 330.995 446.002 330.995L30.8555 330.995C27.7571 330.995 25.2454 328.483 25.2454 325.385L25.2454 300.139C25.2454 297.041 27.7571 294.529 30.8555 294.529Z" stroke="#EF9F27" stroke-width="0.35063" stroke-linecap="butt" stroke-linejoin="miter" stroke-miterlimit="4" stroke-opacity="1" fill="#633806" fill-rule="nonzero" fill-opacity="1" transform="matrix(1 0 0 1.00204 -7.02373e-15 0.00719687)"/><text fill="#FAC775" fill-opacity="1" font-family="Segoe UI,Segoe UI_MSFontService,sans-serif" font-style="normal" font-variant="normal" font-weight="400" font-stretch="normal" font-size="14" text-anchor="start" direction="ltr" writing-mode="lr-tb" unicode-bidi="normal" text-decoration="none" transform="matrix(0.70126 0 0 0.702694 183.029 309)">Long-term object storage</text><text fill="#EF9F27" fill-opacity="1" font-family="Segoe UI,Segoe UI_MSFontService,sans-serif" font-style="normal" font-variant="normal" font-weight="400" font-stretch="normal" font-size="12" text-anchor="start" direction="ltr" writing-mode="lr-tb" unicode-bidi="normal" text-decoration="none" transform="matrix(0.70126 0 0 0.702694 89.4107 320)">S3 / GCS / Azure — TSDB blocks shared by Ingester · Store Gateway · Compactor</text><path d="M255.259 266.479 175.315 294.529" stroke="#9C9A92" stroke-width="1.05189" stroke-linecap="butt" stroke-linejoin="miter" stroke-miterlimit="4" stroke-opacity="1" fill="none" fill-rule="nonzero" transform="matrix(1 0 0 1.00204 -7.02373e-15 0.00719687)"/><path d="M215.988 345.02C219.087 345.02 221.598 347.532 221.598 350.63L221.598 378.681C221.598 381.779 219.087 384.291 215.988 384.291L30.8555 384.291C27.7571 384.291 25.2454 381.779 25.2454 378.681L25.2454 350.63C25.2454 347.532 27.7571 345.02 30.8555 345.02Z" stroke="#5DCAA5" stroke-width="0.35063" stroke-linecap="butt" stroke-linejoin="miter" stroke-miterlimit="4" stroke-opacity="1" fill="#085041" fill-rule="nonzero" fill-opacity="1" transform="matrix(1 0 0 1.00204 -7.02373e-15 0.00719687)"/><text fill="#9FE1CB" fill-opacity="1" font-family="Segoe UI,Segoe UI_MSFontService,sans-serif" font-style="normal" font-variant="normal" font-weight="400" font-stretch="normal" font-size="14" text-anchor="start" direction="ltr" writing-mode="lr-tb" unicode-bidi="normal" text-decoration="none" transform="matrix(0.70126 0 0 0.702694 92.2157 360)">Store Gateway</text><text fill="#5DCAA5" fill-opacity="1" font-family="Segoe UI,Segoe UI_MSFontService,sans-serif" font-style="normal" font-variant="normal" font-weight="400" font-stretch="normal" font-size="12" text-anchor="start" direction="ltr" writing-mode="lr-tb" unicode-bidi="normal" text-decoration="none" transform="matrix(0.70126 0 0 0.702694 45.9325 371)">Serve block data to Queriers · index cache</text><path d="M446.002 345.02C449.1 345.02 451.612 347.532 451.612 350.63L451.612 378.681C451.612 381.779 449.1 384.291 446.002 384.291L260.869 384.291C257.77 384.291 255.259 381.779 255.259 378.681L255.259 350.63C255.259 347.532 257.77 345.02 260.869 345.02Z" stroke="#AFA9EC" stroke-width="0.35063" stroke-linecap="butt" stroke-linejoin="miter" stroke-miterlimit="4" stroke-opacity="1" fill="#3C3489" fill-rule="nonzero" fill-opacity="1" transform="matrix(1 0 0 1.00204 -7.02373e-15 0.00719687)"/><text fill="#CECBF6" fill-opacity="1" font-family="Segoe UI,Segoe UI_MSFontService,sans-serif" font-style="normal" font-variant="normal" font-weight="400" font-stretch="normal" font-size="14" text-anchor="start" direction="ltr" writing-mode="lr-tb" unicode-bidi="normal" text-decoration="none" transform="matrix(0.70126 0 0 0.702694 329.242 360)">Compactor</text><text fill="#AFA9EC" fill-opacity="1" font-family="Segoe UI,Segoe UI_MSFontService,sans-serif" font-style="normal" font-variant="normal" font-weight="400" font-stretch="normal" font-size="12" text-anchor="start" direction="ltr" writing-mode="lr-tb" unicode-bidi="normal" text-decoration="none" transform="matrix(0.70126 0 0 0.702694 272.089 371)">Merge and compact TSDB blocks · retention</text><path d="M448.105 398.316C450.042 398.316 451.612 399.886 451.612 401.822L451.612 410.237C451.612 412.174 450.042 413.744 448.105 413.744L28.7517 413.744C26.8152 413.744 25.2454 412.174 25.2454 410.237L25.2454 401.822C25.2454 399.886 26.8152 398.316 28.7517 398.316Z" stroke="#DEDCD1" stroke-width="0.35063" stroke-linecap="butt" stroke-linejoin="miter" stroke-miterlimit="4" stroke-dasharray="3.5063 2.10378" stroke-opacity="0.15" fill="none" fill-rule="nonzero" transform="matrix(1 0 0 1.00204 -7.02373e-15 0.00719687)"/><text fill="#C2C0B6" fill-opacity="1" font-family="Segoe UI,Segoe UI_MSFontService,sans-serif" font-style="normal" font-variant="normal" font-weight="400" font-stretch="normal" font-size="12" text-anchor="start" direction="ltr" writing-mode="lr-tb" unicode-bidi="normal" text-decoration="none" transform="matrix(0.70126 0 0 0.702694 2.45441 407)">pkg/cortex/modules.go — defines runtime modules · run selected targets or all-in-one · independently deployable and scalable</text><path d="M31.5567 427.769C32.7186 427.769 33.6605 428.711 33.6605 429.873L33.6605 434.08C33.6605 435.242 32.7186 436.184 31.5567 436.184L27.3491 436.184C26.1873 436.184 25.2454 435.242 25.2454 434.08L25.2454 429.873C25.2454 428.711 26.1873 427.769 27.3491 427.769Z" stroke="#AFA9EC" stroke-width="0.35063" stroke-linecap="butt" stroke-linejoin="miter" stroke-miterlimit="4" stroke-opacity="1" fill="#3C3489" fill-rule="nonzero" fill-opacity="1" transform="matrix(1 0 0 1.00204 -7.02373e-15 0.00719687)"/><text fill="#C2C0B6" fill-opacity="1" font-family="Segoe UI,Segoe UI_MSFontService,sans-serif" font-style="normal" font-variant="normal" font-weight="400" font-stretch="normal" font-size="12" text-anchor="start" direction="ltr" writing-mode="lr-tb" unicode-bidi="normal" text-decoration="none" transform="matrix(0.70126 0 0 0.702694 37.8681 433)">Write path</text><path d="M110.098 427.769C111.26 427.769 112.202 428.711 112.202 429.873L112.202 434.08C112.202 435.242 111.26 436.184 110.098 436.184L105.89 436.184C104.728 436.184 103.787 435.242 103.787 434.08L103.787 429.873C103.787 428.711 104.728 427.769 105.89 427.769Z" stroke="#5DCAA5" stroke-width="0.35063" stroke-linecap="butt" stroke-linejoin="miter" stroke-miterlimit="4" stroke-opacity="1" fill="#085041" fill-rule="nonzero" fill-opacity="1" transform="matrix(1 0 0 1.00204 -7.02373e-15 0.00719687)"/><text fill="#C2C0B6" fill-opacity="1" font-family="Segoe UI,Segoe UI_MSFontService,sans-serif" font-style="normal" font-variant="normal" font-weight="400" font-stretch="normal" font-size="12" text-anchor="start" direction="ltr" writing-mode="lr-tb" unicode-bidi="normal" text-decoration="none" transform="matrix(0.70126 0 0 0.702694 116.409 433)">Read path</text><path d="M180.224 427.769C181.386 427.769 182.328 428.711 182.328 429.873L182.328 434.08C182.328 435.242 181.386 436.184 180.224 436.184L176.016 436.184C174.854 436.184 173.913 435.242 173.913 434.08L173.913 429.873C173.913 428.711 174.854 427.769 176.016 427.769Z" stroke="#F0997B" stroke-width="0.35063" stroke-linecap="butt" stroke-linejoin="miter" stroke-miterlimit="4" stroke-opacity="1" fill="#712B13" fill-rule="nonzero" fill-opacity="1" transform="matrix(1 0 0 1.00204 -7.02373e-15 0.00719687)"/><text fill="#C2C0B6" fill-opacity="1" font-family="Segoe UI,Segoe UI_MSFontService,sans-serif" font-style="normal" font-variant="normal" font-weight="400" font-stretch="normal" font-size="12" text-anchor="start" direction="ltr" writing-mode="lr-tb" unicode-bidi="normal" text-decoration="none" transform="matrix(0.70126 0 0 0.702694 186.535 433)">Rules / alerts</text><path d="M272.79 427.769C273.952 427.769 274.894 428.711 274.894 429.873L274.894 434.08C274.894 435.242 273.952 436.184 272.79 436.184L268.583 436.184C267.421 436.184 266.479 435.242 266.479 434.08L266.479 429.873C266.479 428.711 267.421 427.769 268.583 427.769Z" stroke="#EF9F27" stroke-width="0.35063" stroke-linecap="butt" stroke-linejoin="miter" stroke-miterlimit="4" stroke-opacity="1" fill="#633806" fill-rule="nonzero" fill-opacity="1" transform="matrix(1 0 0 1.00204 -7.02373e-15 0.00719687)"/><text fill="#C2C0B6" fill-opacity="1" font-family="Segoe UI,Segoe UI_MSFontService,sans-serif" font-style="normal" font-variant="normal" font-weight="400" font-stretch="normal" font-size="12" text-anchor="start" direction="ltr" writing-mode="lr-tb" unicode-bidi="normal" text-decoration="none" transform="matrix(0.70126 0 0 0.702694 279.102 433)">Object storage</text><path d="M358.344 427.769C359.506 427.769 360.448 428.711 360.448 429.873L360.448 434.08C360.448 435.242 359.506 436.184 358.344 436.184L354.136 436.184C352.975 436.184 352.033 435.242 352.033 434.08L352.033 429.873C352.033 428.711 352.975 427.769 354.136 427.769Z" stroke="#B4B2A9" stroke-width="0.35063" stroke-linecap="butt" stroke-linejoin="miter" stroke-miterlimit="4" stroke-opacity="1" fill="#444441" fill-rule="nonzero" fill-opacity="1" transform="matrix(1 0 0 1.00204 -7.02373e-15 0.00719687)"/><text fill="#C2C0B6" fill-opacity="1" font-family="Segoe UI,Segoe UI_MSFontService,sans-serif" font-style="normal" font-variant="normal" font-weight="400" font-stretch="normal" font-size="12" text-anchor="start" direction="ltr" writing-mode="lr-tb" unicode-bidi="normal" text-decoration="none" transform="matrix(0.70126 0 0 0.702694 364.655 433)">Configs / clients</text></g></g></svg>